#!OML:ASF E:\Steps\Project 1\Capture day 1\Session 2\Subject.ASF
:FULLY-SPECIFIED
:DEGREES
126
root -0.863673 19.5033 20.5374 -156.187 -1.28792 180.74
lowerback -22.7498 -2.9941 -9.20654
upperback -0.92902 -2.01062 0.805088
thorax 12.097 -1.63719 5.50125
lowerneck -2.82187 -5.41418 -0.564904
upperneck 22.7964 -6.46038 3.34505
head 7.58833 -2.18713 0.80524
rclavicle -8.94531e-015 1.11319e-014
rhumerus -39.1356 -22.2478 -73.7376
rradius 27.3545
rwrist 0.373881
rhand -5.7575 -56.9227
rfingers 7.12502
rthumb 20.0655 -85.9066
lclavicle -8.94531e-015 1.11319e-014
lhumerus -31.0774 8.36179 75.7894
lradius 19.5107
lwrist -5.99271
lhand -21.0803 -13.7132
lfingers 7.12502
lthumb 5.29686 16.2006
rfemur -43.6967 -2.9649 18.3774
rtibia 40.4003
rfoot -16.5385 -8.1859
rtoes -20.201
lfemur -30.8019 -12.4028 -17.8163
ltibia 27.4598
lfoot -19.1691 5.46248
ltoes -28.04
127
root -0.846916 19.4902 20.5266 -156.168 -1.42121 180.92
lowerback -22.75 -3.05691 -9.15244
upperback -0.930135 -2.11437 0.875598
thorax 12.1147 -1.68467 5.51583
lowerneck -2.5885 -5.27658 -0.838564
upperneck 22.5864 -6.30094 3.66228
head 7.49334 -2.11633 0.971615
rclavicle 6.65929e-015 -4.77083e-015
rhumerus -39.2364 -22.0524 -73.7644
rradius 27.4291
rwrist 0.276707
rhand -5.76926 -57.1199
rfingers 7.12502
rthumb 20.0542 -86.105
lclavicle 6.65929e-015 -4.77083e-015
lhumerus -31.1427 7.88071 75.9249
lradius 19.7087
lwrist -5.79141
lhand -22.1455 -13.383
lfingers 7.12502
lthumb 4.26828 16.554
rfemur -43.6099 -2.635 17.8606
rtibia 39.3541
rfoot -15.2181 -9.35209
rtoes -17.649
lfemur -31.0621 -12.3926 -17.5215
ltibia 27.994
lfoot -19.4789 5.33265
ltoes -27.1532
128
root -0.828506 19.4784 20.5158 -156.187 -1.68641 180.976
lowerback -22.683 -3.13487 -9.19571
upperback -0.897494 -2.20641 0.879319
thorax 12.1336 -1.72949 5.5147
lowerneck -2.54474 -5.24894 -0.936468
upperneck 22.4132 -6.30984 3.88955
head 7.43946 -2.12015 1.06164
rclavicle -1.05356e-014 4.77083e-015
rhumerus -39.2935 -22.136 -73.71
rradius 27.348
rwrist 0.276645
rhand -5.78648 -56.6813
rfingers 7.12502
rthumb 20.0376 -85.6681
lclavicle -1.05356e-014 4.77083e-015
lhumerus -31.0536 7.37052 76.0213
lradius 19.8798
lwrist -5.38258
lhand -22.4718 -12.8189
lfingers 7.12502
lthumb 3.95315 17.1242
rfemur -43.3683 -2.41898 17.171
rtibia 38.0376
rfoot -14.3378 -10.1181
rtoes -12.4632
lfemur -31.3475 -12.5891 -17.3147
ltibia 28.6259
lfoot -19.8094 5.05402
ltoes -25.6702
129
root -0.807156 19.4643 20.5032 -156.205 -1.95536 181.029
lowerback -22.6124 -3.23023 -9.29375
upperback -0.87008 -2.30912 0.885751
thorax 12.1488 -1.78258 5.54459
lowerneck -2.6377 -5.374 -0.796748
upperneck 22.3724 -6.50893 3.86179
head 7.44243 -2.21199 1.01175
rclavicle 1.51076e-014 1.90833e-014
rhumerus -39.4715 -22.2864 -73.6044
rradius 27.3561
rwrist 0.213926
rhand -5.70943 -56.144
rfingers 7.12502
rthumb 20.1117 -85.123
lclavicle 1.51076e-014 1.90833e-014
lhumerus -30.9901 7.07597 75.9786
lradius 20.0722
lwrist -5.07408
lhand -22.3423 -12.628
lfingers 7.12502
lthumb 4.07821 17.3127
rfemur -43.0868 -2.33626 16.5552
rtibia 36.547
rfoot -13.488 -10.6321
rtoes -9.49602
lfemur -31.6147 -12.7655 -17.1177
ltibia 29.2416
lfoot -20.0923 4.94169
ltoes -25.8794
130
root -0.785875 19.446 20.4878 -156.216 -2.21684 181.071
lowerback -22.5802 -3.36498 -9.41981
upperback -0.835177 -2.45613 0.928131
thorax 12.2053 -1.86095 5.61581
lowerneck -2.72773 -5.45693 -0.737108
upperneck 22.4218 -6.62416 3.78355
head 7.47311 -2.26904 0.965247
rclavicle -7.95139e-015 -2.62396e-014
rhumerus -39.6347 -22.3289 -73.4998
rradius 27.3978
rwrist 0.192905
rhand -5.6481 -56.1957
rfingers 7.12502
rthumb 20.1706 -85.1686
lclavicle -7.95139e-015 -2.62396e-014
lhumerus -31.0146 6.92214 75.9432
lradius 20.3474
lwrist -4.94601
lhand -22.2719 -12.8571
lfingers 7.12502
lthumb 4.14623 17.0823
rfemur -42.8205 -2.26562 15.9356
rtibia 35.1673
rfoot -12.1725 -11.0395
rtoes -10.4111
lfemur -31.8497 -12.9275 -16.9322
ltibia 29.7719
lfoot -20.3744 4.80511
ltoes -25.722
131
root -0.763801 19.4266 20.472 -156.191 -2.53674 181.147
lowerback -22.584 -3.44482 -9.47193
upperback -0.80049 -2.54463 0.956088
thorax 12.2678 -1.9078 5.64715
lowerneck -2.73349 -5.42211 -0.772899
upperneck 22.3558 -6.59785 3.89104
head 7.45666 -2.254 1.00784
rclavicle -2.98177e-015 -3.18055e-015
rhumerus -39.7377 -22.3692 -73.4529
rradius 27.3515
rwrist 0.21575
rhand -5.831 -56.8408
rfingers 7.12502
rthumb 19.9948 -85.832
lclavicle -2.98177e-015 -3.18055e-015
lhumerus -30.8612 6.82492 75.9272
lradius 20.4483
lwrist -5.09415
lhand -22.221 -13.1037
lfingers 7.12502
lthumb 4.19532 16.8348
rfemur -42.5509 -2.12396 15.3186
rtibia 33.8533
rfoot -10.7711 -11.1514
rtoes -10.9964
lfemur -32.1856 -13.0795 -16.6816
ltibia 30.4244
lfoot -20.7136 4.54758
ltoes -25.0415
